<?xml version="1.0" standalone="no"?>
<!DOCTYPE svg PUBLIC "-//W3C//DTD SVG 20010904//EN"
 "http://www.w3.org/TR/2001/REC-SVG-20010904/DTD/svg10.dtd">
<svg version="1.0" xmlns="http://www.w3.org/2000/svg"
 width="301.000000pt" height="167.000000pt" viewBox="0 0 301.000000 167.000000"
 preserveAspectRatio="xMidYMid meet">

<g transform="translate(0.000000,167.000000) scale(0.100000,-0.100000)"
fill="#000000" stroke="none">
<path d="M1341 1645 c-192 -43 -351 -138 -472 -283 -274 -328 -249 -813 59
-1118 361 -357 975 -297 1261 125 178 262 191 614 31 881 -111 186 -285 321
-492 381 -96 27 -295 35 -387 14z m626 -293 c-28 -29 -35 -68 -18 -100 5 -9
12 -100 15 -203 7 -174 6 -186 -12 -209 -17 -22 -23 -23 -46 -12 l-26 12 0
183 c0 106 5 197 11 215 23 68 8 68 -73 3 -43 -34 -78 -64 -78 -66 0 -3 7 -31
16 -63 24 -87 9 -130 -72 -208 -91 -86 -87 -112 27 -200 72 -55 98 -104 99
-182 0 -148 -137 -239 -344 -230 -82 3 -102 8 -162 38 -83 42 -114 82 -114
147 0 108 107 196 254 210 85 8 88 10 71 58 -7 22 -11 52 -8 68 5 25 3 27 -28
27 -101 0 -185 64 -214 162 l-16 57 -116 3 -116 3 183 158 182 157 306 0 306
0 -27 -28z"/>
<path d="M1419 1225 c-49 -27 -72 -123 -47 -196 31 -92 105 -159 176 -159 33
0 45 6 70 35 122 138 -44 404 -199 320z"/>
<path d="M1418 645 c-85 -31 -118 -73 -118 -147 0 -98 84 -158 221 -158 60 0
85 5 126 25 66 33 88 72 81 146 -5 47 -10 58 -46 89 -22 20 -58 42 -80 48 -51
16 -137 14 -184 -3z"/>
</g>
</svg>
