<?xml version="1.0" standalone="no"?>
<!DOCTYPE svg PUBLIC "-//W3C//DTD SVG 20010904//EN"
 "http://www.w3.org/TR/2001/REC-SVG-20010904/DTD/svg10.dtd">
<svg version="1.0" xmlns="http://www.w3.org/2000/svg"
 width="310.000000pt" height="163.000000pt" viewBox="0 0 310.000000 163.000000"
 preserveAspectRatio="xMidYMid meet">

<g transform="translate(0.000000,163.000000) scale(0.100000,-0.100000)"
fill="#000000" stroke="none">
<path d="M1373 1206 c-16 -14 -28 -35 -28 -50 -2 -35 -149 -186 -181 -186 -37
0 -74 -37 -74 -76 0 -45 29 -74 74 -74 39 0 76 37 76 74 0 33 158 183 190 181
34 -1 170 -111 170 -137 0 -10 11 -30 25 -43 44 -45 117 -25 130 35 10 44 138
147 182 147 46 0 73 27 73 74 0 43 -35 79 -77 79 -30 0 -73 -42 -73 -72 -1
-16 -22 -39 -74 -80 -98 -76 -114 -76 -212 0 -40 31 -73 62 -74 69 -1 26 -23
61 -47 72 -35 16 -49 14 -80 -13z"/>
<path d="M1352 908 c-17 -17 -17 -479 0 -496 19 -19 134 -16 142 4 12 31 7
479 -6 492 -7 7 -37 12 -68 12 -31 0 -61 -5 -68 -12z"/>
<path d="M1865 908 c-3 -7 -4 -124 -3 -258 l3 -245 70 0 70 0 0 255 0 255 -68
3 c-48 2 -69 -1 -72 -10z"/>
<path d="M1607 703 c-9 -8 -9 -266 -1 -287 8 -20 123 -23 142 -4 13 13 18 252
6 282 -5 12 -21 16 -73 16 -37 0 -71 -3 -74 -7z"/>
<path d="M1095 647 c-3 -7 -4 -65 -3 -128 l3 -114 70 0 70 0 0 125 0 125 -68
3 c-50 2 -69 -1 -72 -11z"/>
</g>
</svg>
