<?xml version="1.0" standalone="no"?>
<!DOCTYPE svg PUBLIC "-//W3C//DTD SVG 20010904//EN"
 "http://www.w3.org/TR/2001/REC-SVG-20010904/DTD/svg10.dtd">
<svg version="1.0" xmlns="http://www.w3.org/2000/svg"
 width="310.000000pt" height="163.000000pt" viewBox="0 0 310.000000 163.000000"
 preserveAspectRatio="xMidYMid meet">

<g transform="translate(0.000000,163.000000) scale(0.100000,-0.100000)"
fill="#000000" stroke="none">
<path d="M1383 1136 c-52 -52 -93 -102 -93 -113 0 -10 18 -37 40 -58 22 -21
40 -42 40 -45 0 -3 -31 -5 -68 -6 -72 -1 -162 -32 -162 -56 0 -7 45 -58 101
-114 110 -110 109 -107 36 -143 -54 -27 -46 -91 12 -91 31 0 51 16 51 40 0 9
9 25 20 35 21 19 22 17 125 -85 87 -87 106 -101 119 -91 24 20 46 100 46 170
l0 65 43 -42 c26 -26 52 -42 67 -42 34 0 200 167 200 201 0 17 -19 43 -60 84
-33 33 -60 64 -60 70 0 6 27 37 60 70 40 39 60 67 60 83 0 29 -112 150 -148
159 -20 5 -35 -6 -93 -63 l-69 -68 -68 67 c-37 37 -76 67 -87 67 -11 0 -58
-39 -112 -94z m166 -48 l45 -49 -57 -57 -57 -57 -50 50 -50 49 57 58 c32 32
60 58 63 57 3 -1 25 -23 49 -51z m291 17 l34 -35 -139 -142 c-77 -78 -141
-144 -142 -146 -1 -2 -18 13 -38 33 l-37 36 23 27 c42 48 254 262 259 262 4 0
21 -16 40 -35z m-22 -402 l-58 -58 -50 50 -50 49 57 58 58 58 50 -50 50 -50
-57 -57z m-427 125 c56 -19 117 -66 143 -111 30 -52 49 -130 40 -170 -6 -29
-7 -28 -160 124 -85 85 -154 157 -154 161 0 12 93 9 131 -4z"/>
</g>
</svg>
