<?xml version="1.0" standalone="no"?>
<!DOCTYPE svg PUBLIC "-//W3C//DTD SVG 20010904//EN"
 "http://www.w3.org/TR/2001/REC-SVG-20010904/DTD/svg10.dtd">
<svg version="1.0" xmlns="http://www.w3.org/2000/svg"
 width="310.000000pt" height="163.000000pt" viewBox="0 0 310.000000 163.000000"
 preserveAspectRatio="xMidYMid meet">

<g transform="translate(0.000000,163.000000) scale(0.100000,-0.100000)"
fill="#000000" stroke="none">
<path d="M1390 1133 l-145 -98 -3 -317 -2 -318 105 0 104 0 3 128 3 127 95 0
95 0 3 -127 3 -128 104 0 105 0 -2 318 -3 317 -145 98 c-79 53 -151 97 -160
97 -9 0 -81 -44 -160 -97z m234 -84 c56 -44 70 -110 36 -166 -26 -44 -63 -66
-110 -66 -94 0 -157 101 -115 183 36 70 131 94 189 49z"/>
<path d="M1524 1007 c-3 -8 -4 -36 -2 -63 l3 -49 50 0 c44 0 50 3 53 23 3 18
-1 22 -22 22 -21 0 -25 5 -28 38 -2 30 -7 38 -26 40 -12 2 -24 -3 -28 -11z"/>
<path d="M1050 900 c-19 -19 -20 -33 -20 -248 0 -164 3 -231 12 -240 7 -7 40
-12 80 -12 l68 0 0 260 0 260 -60 0 c-47 0 -64 -4 -80 -20z"/>
<path d="M1910 660 l0 -260 68 0 c40 0 73 5 80 12 9 9 12 76 12 240 0 271 1
268 -100 268 l-60 0 0 -260z"/>
</g>
</svg>
